HIERARCHY
ROOT RootJoint
{
    OFFSET   0.000000   0.000000   0.000000
    CHANNELS 6 Xposition Yposition Zposition Xrotation Yrotation Zrotation
    JOINT lHip
    {
        OFFSET   0.078795   0.000000   0.000000
        CHANNELS 3 Xrotation Yrotation Zrotation
        JOINT lKnee
        {
            OFFSET   0.000000  -0.427566   0.000000
            CHANNELS 3 Xrotation Yrotation Zrotation
            JOINT lAnkle
            {
                OFFSET   0.000000  -0.394685   0.000000
                CHANNELS 3 Xrotation Yrotation Zrotation
            }
        }
    }
    JOINT rHip
    {
        OFFSET  -0.078795   0.000000   0.000000
        CHANNELS 3 Xrotation Yrotation Zrotation
        JOINT rKnee
        {
            OFFSET   0.000000  -0.427566   0.000000
            CHANNELS 3 Xrotation Yrotation Zrotation
            JOINT rAnkle
            {
                OFFSET   0.000000  -0.394685   0.000000
                CHANNELS 3 Xrotation Yrotation Zrotation
            }
        }
    }
    JOINT pelvis_lowerback
    {
        OFFSET   0.000000   0.001000   0.000000
        CHANNELS 3 Xrotation Yrotation Zrotation
        JOINT lowerback_torso
        {
            OFFSET   0.000000   0.211086   0.000000
            CHANNELS 3 Xrotation Yrotation Zrotation
            JOINT torso_head
            {
                OFFSET   0.000000   0.158868   0.000000
                CHANNELS 3 Xrotation Yrotation Zrotation
            }
            JOINT lTorso_Clavicle
            {
                OFFSET   0.000000   0.158868   0.000000
                CHANNELS 3 Xrotation Yrotation Zrotation
                JOINT lShoulder
                {
                    OFFSET   0.189194  -0.000001   0.000000
                    CHANNELS 3 Xrotation Yrotation Zrotation
                    JOINT lElbow
                    {
                        OFFSET   0.272680  -0.000001   0.000000
                        CHANNELS 3 Xrotation Yrotation Zrotation
                    }
                }
            }
            JOINT rTorso_Clavicle
            {
                OFFSET   0.000000   0.158868   0.000000
                CHANNELS 3 Xrotation Yrotation Zrotation
                JOINT rShoulder
                {
                    OFFSET  -0.189194  -0.000001   0.000000
                    CHANNELS 3 Xrotation Yrotation Zrotation
                    JOINT rElbow
                    {
                        OFFSET  -0.272680  -0.000001   0.000000
                        CHANNELS 3 Xrotation Yrotation Zrotation
                    }
                }
            }
        }
    }
}
MOTION
Frames: 21
Frame Time:   0.016667
 -1.031392   0.860377   0.078141 -47.485900 -87.615600 -51.061500  -7.756900  16.583000   0.093500  23.074700   0.000000   0.000000 -15.578800  12.425200 -20.878500   7.949800 -15.664000  -0.304300  11.234400   0.000000   0.000000 -19.679200  -9.611400  -3.486500  -7.554100   7.310600  -0.053800   3.795800   3.367400  -5.451200  23.508600  12.695600   0.419300  18.106400   3.532200  21.387200   9.512600  21.622500 -93.410900  -0.000100 -29.072300   0.000000  17.432600   5.772900 -19.754900 -16.449700  -6.196500  57.093800  -0.000300  55.287400   0.000200
 -1.024031   0.859963   0.078928 -25.739600 -87.725100 -28.851900  -9.081600  16.453200  -0.208600  23.531000   0.000000   0.000000 -14.962600  10.865500 -21.563700   7.148700 -16.671900  -0.913600  10.207900   0.000000   0.000000 -19.558900  -8.669100  -2.002000  -7.303100   6.935300   0.313500   3.670800   3.096500  -5.527500  22.858300  12.949200   0.073600  17.837200   2.616400  21.282300   8.050400  18.683500 -93.180400  -0.000100 -29.018100   0.000000  17.546700   5.346400 -19.782800 -15.967300  -5.427900  57.759200  -0.000300  56.400800   0.000200
 -1.016307   0.859528   0.079253  -4.515900 -87.205900  -7.472300 -10.710700  16.536600  -0.094900  24.377800   0.000000   0.000000 -14.602900   8.840000 -22.349200   6.228000 -17.988300  -1.216000   9.556500   0.000000   0.000000 -19.408700  -7.725300   0.098400  -6.947800   6.569400   0.739000   3.406700   2.830000  -5.280500  22.298600  12.844500  -0.157900  17.831400   1.725800  21.065800   6.133800  15.766900 -92.755900  -0.000100 -29.363800   0.000000  17.793700   4.828200 -19.786800 -15.427400  -5.190600  58.562200  -0.000300  57.354900   0.000200
 -1.007819   0.859020   0.078443  12.834300 -86.281400   9.540300 -13.162100  16.905100   0.823800  25.917400   0.000000   0.000000 -14.524700   5.802700 -23.862700   4.965500 -19.108500  -0.849900   9.311100   0.000000   0.000000 -19.235500  -7.288500   1.033400  -6.578000   6.170600   1.248500   2.763900   2.575300  -4.650300  21.732600  12.706200  -0.419900  17.689300   1.139200  20.797400   4.013500  12.481800 -92.161900  -0.000100 -29.808100   0.000000  17.731700   4.333700 -19.642400 -14.424000  -4.845400  59.366000  -0.000300  57.826000   0.000200
 -0.999790   0.858454   0.076726  20.370100 -84.988700  16.560600 -15.747700  16.898600   2.164600  27.938800   0.000000   0.000000 -14.576700   1.536400 -26.256500   3.976700 -20.154500  -0.120700   9.173900   0.000000   0.000000 -19.143200  -7.366300   1.358700  -6.240400   5.705100   1.633300   2.268300   2.245000  -3.825900  21.233600  12.320300  -0.483300  17.470700   0.537100  20.703100   2.105600   9.777400 -91.774200  -0.000100 -30.747800   0.000000  17.919200   3.940900 -19.468300 -13.621400  -4.866100  60.371500  -0.000300  57.696400   0.000200
 -0.992883   0.857918   0.074485  23.594400 -83.655100  19.244100 -18.158900  16.235800   3.645700  30.072400   0.000000   0.000000 -14.758100  -3.222100 -30.459600   3.489100 -20.742800   0.829600   8.597700   0.000000   0.000000 -19.014600  -8.037900   1.319600  -6.050100   5.228500   1.871600   1.997200   1.899400  -2.953500  20.770100  11.896500  -0.454400  17.185300  -0.054200  20.729500   0.475500   7.086100 -91.416400  -0.000100 -32.086000   0.000000  17.979100   3.738900 -19.216400 -12.565200  -4.890700  61.564700  -0.000300  56.960500   0.000200
 -0.987295   0.857491   0.072149  24.311300 -82.289100  19.474200 -20.073100  14.644100   4.972300  31.866500   0.000000   0.000000 -15.373900  -7.851900 -36.061900   3.462700 -20.929500   1.836800   7.581400   0.000000   0.000000 -18.730400  -9.153100   1.103800  -5.979200   4.699700   1.957400   1.951500   1.480300  -2.148600  20.300300  11.399400  -0.265900  16.921600  -0.602300  20.964500  -1.078100   5.576900 -91.371800  -0.000100 -33.429500   0.000000  18.019000   3.632600 -18.822400 -11.601400  -5.021200  62.989700  -0.000300  55.600700   0.000200
 -0.982858   0.857321   0.069954  23.979400 -81.014200  18.709300 -21.351300  12.159000   6.019000  33.216600   0.000000   0.000000 -16.451600 -11.453500 -42.747500   3.692500 -20.313300   2.763700   6.328500   0.000000   0.000000 -18.295600 -10.800500   1.115700  -5.975400   4.257600   1.981800   2.024400   1.142100  -1.421000  19.880900  10.837100   0.000900  16.668200  -1.298400  21.216900  -2.496800   4.580800 -91.341000  -0.000100 -34.840900   0.000000  18.122900   3.445800 -18.404700 -10.682600  -5.286800  64.788900  -0.000300  53.753500   0.000100
 -0.979691   0.857499   0.069238  22.341500 -79.944100  17.194000 -21.593900   9.204000   6.152900  34.329800   0.000000   0.000000 -17.684400 -12.273000 -44.672400   3.842700 -19.578100   2.875000   5.431200   0.000000   0.000000 -17.992900 -12.379200   1.337300  -5.903600   3.956200   1.815900   2.144000   0.877800  -1.194500  19.706900  10.237900   0.366000  16.340700  -2.243000  21.537100  -3.563700   3.771500 -91.262800  -0.000200 -36.185000  -0.000100  18.365900   3.292600 -17.937500  -9.833300  -5.852300  66.992000  -0.000300  51.436400   0.000100
 -0.977565   0.857959   0.068730  21.167700 -78.993600  16.024800 -21.514700   6.289800   6.345200  35.766400   0.000000   0.000000 -18.991200  -9.509800 -41.846200   3.984800 -18.582800   3.071600   4.734700   0.000000   0.000000 -17.678800 -14.088400   1.150700  -5.892900   3.627400   1.636500   2.098800   0.601200  -0.834200  19.688700   9.776400   0.670500  16.392600  -2.927000  21.736200  -4.932400   2.831100 -91.120400  -0.000200 -37.329900  -0.000100  18.422700   3.154100 -17.573400  -8.761800  -6.204800  69.424200  -0.000200  48.706900   0.000100
 -0.976561   0.858550   0.067998  19.710100 -78.423500  14.454900 -20.823000   3.943500   6.859300  37.037700   0.000000   0.000000 -19.859600  -4.406800 -38.053200   4.326700 -17.726400   3.405600   4.240400   0.000000   0.000000 -17.369400 -15.412600   0.473700  -5.825000   3.392300   1.375700   2.066700   0.449300  -0.196800  19.710400   9.497400   0.876300  16.423500  -3.343600  21.681600  -6.530200   1.435400 -90.784500  -0.000200 -38.124100  -0.000100  18.471100   3.033700 -17.302800  -7.617700  -6.643500  72.017200  -0.000200  45.884100   0.000100
 -0.976574   0.859008   0.067587  18.770300 -78.345500  13.503100 -19.582900   2.473900   7.522000  37.765600   0.000000   0.000000 -19.959000   0.635600 -34.049400   4.547800 -17.490500   3.534500   4.140200   0.000000   0.000000 -17.244800 -15.793300  -0.050100  -5.840300   3.256300   1.082200   2.068600   0.388000   0.273200  19.660700   9.347800   1.086900  16.320200  -3.718900  21.694100  -7.742200   0.182900 -90.522200  -0.000200 -38.943200  -0.000100  18.546400   2.981700 -17.152700  -6.640200  -6.836100  74.800400  -0.000200  42.618300   0.000100
 -0.977125   0.859211   0.067325  18.390100 -78.636300  13.106200 -17.925400   1.749100   8.413300  37.698900   0.000000   0.000000 -19.571000   3.526900 -31.160300   4.706000 -16.702800   3.615900   4.083100   0.000000   0.000000 -17.219000 -16.349100  -0.553900  -5.959100   3.164900   0.807700   2.112200   0.365500   0.655000  19.626500   9.331800   1.271000  16.219700  -3.964200  21.856500  -8.857600  -1.162800 -90.351900  -0.000200 -39.611400  -0.000100  18.644300   2.973700 -17.007400  -5.867400  -6.735500  77.534200  -0.000200  38.973500   0.000100
 -0.978405   0.859051   0.067208  17.981900 -78.973700  12.646600 -15.828600   1.208700   9.378800  36.802100   0.000000   0.000000 -18.613300   4.640400 -30.323200   4.787900 -16.874700   3.645300   4.418100   0.000000   0.000000 -17.373100 -15.956400  -0.703200  -6.129300   2.936500   0.542500   2.097800   0.207900   1.002400  19.714800   9.419300   1.442300  16.193800  -4.203900  22.096100  -9.658000  -2.267400 -90.229800  -0.000200 -40.438000  -0.000100  18.702400   3.044800 -16.906300  -5.146200  -6.277600  80.175200  -0.000100  34.917400   0.000000
 -0.980648   0.858629   0.067640  16.904800 -79.652100  11.504900 -12.957400   0.748300  10.287200  34.906400   0.000000   0.000000 -17.298600   4.633700 -31.099900   4.984300 -16.937700   3.585800   4.985800   0.000000   0.000000 -17.622400 -15.320300  -0.673400  -6.359500   2.824000   0.325300   2.446900   0.175700   1.429000  19.578100   9.614800   1.522200  16.132400  -4.293000  22.172500 -10.651100  -3.689900 -90.006700  -0.000200 -41.277000  -0.000100  18.773400   2.873500 -16.769700  -4.663700  -5.672100  82.599600  -0.000100  30.726100   0.000000
 -0.982934   0.857781   0.068379  16.273900 -80.227200  10.685800  -9.749100  -0.146800  11.093000  31.850500   0.000000   0.000000 -18.809100   1.771400 -31.265300   5.040300 -17.089200   3.594000   5.694100   0.000000   0.000000 -18.016800 -14.676800  -0.456200  -6.572300   2.584700   0.227800   2.523800   0.003000   1.816400  19.600400   9.823500   1.599700  16.135800  -4.630800  22.322400 -11.232800  -4.807300 -89.796200  -0.000200 -42.353000  -0.000100  18.886000   2.713900 -16.597300  -4.142800  -4.673200  84.750400  -0.000100  26.409500   0.000000
 -0.985101   0.856955   0.069847  16.506500 -80.688900  10.750600  -6.566200  -1.153700  11.589500  27.233700   0.000000   0.000000 -20.759000  -2.292200 -30.339300   4.810000 -17.236900   3.499800   6.596900   0.000000   0.000000 -18.464500 -14.139900  -0.432300  -6.872700   2.239800   0.138800   2.466500  -0.289600   2.160400  19.837400   9.892300   1.782200  16.197500  -5.020000  22.495600 -11.949800  -6.145800 -89.705300  -0.000200 -43.002400  -0.000100  18.948700   2.668200 -16.217400  -3.440200  -3.406900  86.427000  -0.000100  22.280000   0.000000
 -0.987298   0.856346   0.072517  16.084400 -81.340200  10.555600  -3.175500  -1.941400  11.260600  21.734400   0.000000   0.000000 -20.893400  -1.704800 -31.073300   4.367400 -17.357000   2.848000   7.926600   0.000000   0.000000 -19.163700 -13.584300  -0.111700  -7.235500   1.947800  -0.166100   2.973400  -0.500600   2.519500  19.664200  10.096100   1.836100  16.042600  -5.316500  22.375800 -12.871700  -7.707200 -89.509300  -0.000200 -43.794800  -0.000100  19.038300   2.418600 -15.850400  -3.088700  -1.973100  87.810400  -0.000100  18.414300   0.000000
 -0.988576   0.856130   0.076411  16.774600 -81.902600  11.977000  -0.586300  -2.304200  10.098600  17.136200   0.000000   0.000000 -20.023900  -0.296000 -30.960400   3.114100 -17.396200   1.474100  10.029300   0.000000   0.000000 -20.100900 -13.211200  -0.288700  -7.326400   1.591900  -0.775400   2.917600  -0.762800   2.735200  19.723600  10.322300   1.885700  15.956600  -5.793200  22.081300 -13.680500  -9.268800 -89.234900  -0.000200 -44.626300  -0.000100  19.084000   2.229100 -15.276100  -2.372600  -0.653800  88.733700  -0.000100  15.189000   0.000000
 -0.989371   0.856066   0.080477  18.537600 -82.550600  14.556300   1.119200  -0.859100   8.746500  13.592700   0.000000   0.000000 -19.240300   0.643800 -29.325700   1.113900 -17.225200  -0.158100  13.242300   0.000000   0.000000 -21.358600 -12.950700  -0.571300  -7.571100   1.267300  -1.424600   3.049100  -0.994200   2.948900  19.779000  10.529600   1.941300  15.943400  -6.467300  21.822300 -14.696300 -10.689000 -88.855300  -0.000200 -45.625000  -0.000100  19.067400   2.193400 -14.806200  -1.517800   0.348300  89.546200   0.000000  12.591300   0.000000
 -0.989495   0.855609   0.084496  21.335700 -83.286600  18.349000   2.491300   1.215600   7.273000  10.526500   0.000000   0.000000 -18.326500   0.462900 -28.155200  -1.632400 -16.825700  -2.161700  17.601100   0.000000   0.000000 -22.687800 -12.562000  -1.285800  -7.634200   0.975400  -2.276000   3.076100  -1.171500   3.194200  19.505000  10.596800   2.120300  15.893500  -7.104600  21.846900 -15.860500 -11.881100 -88.827000  -0.000200 -46.893000  -0.000100  19.164300   2.015200 -14.541000  -0.702200   0.807700  90.377100   0.000000  10.766300   0.000000
